<?xml version="1.0" standalone="no"?>
<!DOCTYPE svg PUBLIC "-//W3C//DTD SVG 20010904//EN"
 "http://www.w3.org/TR/2001/REC-SVG-20010904/DTD/svg10.dtd">
<svg version="1.0" xmlns="http://www.w3.org/2000/svg"
 width="848.000000pt" height="848.000000pt" viewBox="0 0 848.000000 848.000000"
 preserveAspectRatio="xMidYMid meet">
<metadata>
Created by potrace 1.14, written by Peter Selinger 2001-2017
</metadata>
<g transform="translate(0.000000,848.000000) scale(0.100000,-0.100000)"
fill="#000000" stroke="none">
<path d="M6728 8174 c-2 -1 -34 -5 -73 -8 -38 -3 -79 -7 -90 -10 -11 -2 -42
-7 -70 -10 -27 -4 -75 -13 -105 -21 -30 -8 -66 -16 -80 -19 -28 -5 -155 -43
-185 -55 -187 -75 -359 -203 -412 -306 -9 -16 -19 -32 -23 -35 -6 -5 -38 -102
-45 -137 -2 -10 -4 -18 -6 -18 -5 0 -6 -232 0 -240 4 -5 8 -23 10 -40 3 -35
50 -142 77 -175 48 -59 105 -103 188 -146 50 -25 91 -45 91 -44 0 1 19 -3 43
-10 24 -6 69 -13 101 -15 31 -2 61 -4 66 -5 6 -1 12 -2 15 -1 3 1 25 4 50 6
237 19 456 187 520 397 33 108 12 271 -51 397 -30 59 -140 191 -160 191 -4 0
-23 10 -42 23 -32 22 -33 24 -19 45 8 12 20 22 27 22 8 0 15 4 17 10 7 20 129
38 270 38 139 1 265 -16 373 -49 49 -16 44 -14 80 -24 17 -4 38 -15 48 -23 9
-8 17 -12 17 -8 0 14 232 -112 292 -158 14 -12 39 -31 55 -43 111 -84 255
-266 307 -386 9 -20 22 -52 30 -70 8 -18 17 -44 20 -57 3 -14 8 -36 11 -50 19
-81 23 -124 20 -224 -2 -112 -11 -192 -23 -211 -3 -5 -8 -19 -9 -29 -2 -11 -7
-24 -12 -30 -4 -6 -11 -23 -15 -39 -8 -36 -84 -163 -140 -235 -117 -153 -326
-304 -624 -451 -98 -49 -176 -83 -437 -192 -29 -12 -158 -60 -170 -63 -5 -2
-23 -9 -40 -15 -16 -7 -37 -14 -45 -16 -8 -2 -35 -11 -60 -20 -37 -14 -178
-59 -215 -69 -5 -2 -17 -6 -25 -9 -8 -3 -55 -18 -105 -32 -49 -15 -110 -33
-135 -42 -25 -8 -52 -16 -60 -18 -8 -2 -46 -13 -84 -25 -38 -12 -76 -23 -85
-25 -9 -2 -101 -29 -206 -60 -104 -31 -197 -58 -205 -60 -14 -4 -154 -43 -175
-49 -5 -1 -30 -8 -55 -15 -48 -13 -189 -55 -330 -98 -47 -14 -87 -26 -90 -26
-3 0 -30 -9 -60 -19 -30 -11 -62 -21 -70 -23 -8 -2 -16 -4 -17 -5 -2 -2 -6 -3
-10 -4 -21 -5 -158 -53 -238 -83 -49 -19 -94 -36 -100 -37 -21 -6 -54 -21
-195 -89 -80 -39 -148 -69 -152 -69 -5 1 -8 -3 -8 -8 0 -6 -4 -10 -10 -10 -20
0 -270 -159 -270 -172 0 -4 -5 -8 -11 -8 -6 0 -16 -6 -24 -12 -7 -7 -28 -24
-47 -37 -18 -14 -83 -75 -143 -135 -113 -114 -212 -248 -261 -354 -36 -78 -96
-263 -90 -278 3 -7 2 -15 -2 -18 -3 -4 -7 -14 -9 -24 -5 -33 -14 -98 -18 -137
-5 -48 -6 -248 -1 -290 2 -16 7 -59 10 -93 4 -35 11 -75 16 -88 6 -14 9 -28 8
-32 -5 -20 40 -146 90 -252 68 -142 207 -295 369 -406 62 -42 174 -104 190
-105 5 0 17 -6 28 -13 25 -16 180 -69 260 -90 60 -15 98 -22 165 -32 19 -2 46
-7 60 -9 29 -6 260 -6 305 -1 92 11 142 18 155 21 8 2 31 7 50 10 103 17 271
74 385 131 88 44 125 64 135 74 3 3 25 19 50 35 47 32 220 197 220 211 0 4 6
15 14 23 38 45 100 189 112 261 31 185 15 334 -50 455 -11 22 -24 42 -27 45
-3 3 -8 10 -10 17 -8 23 -103 115 -152 148 -89 58 -165 78 -309 81 -80 2 -128
-1 -128 -7 0 -6 -4 -7 -10 -4 -5 3 -29 1 -52 -6 -24 -6 -44 -11 -46 -10 -5 3
-109 -53 -147 -79 -94 -65 -205 -213 -193 -260 1 -3 -3 -14 -9 -25 -12 -21
-26 -109 -26 -160 0 -165 53 -313 142 -393 36 -32 146 -96 212 -123 63 -25
125 -45 150 -48 19 -2 -25 -63 -68 -92 -23 -16 -63 -38 -89 -49 -43 -19 -195
-66 -241 -74 -177 -34 -380 -28 -525 17 -27 8 -48 13 -48 10 0 -3 -6 -1 -12 4
-7 6 -26 13 -42 17 -43 11 -177 79 -249 128 -72 48 -199 172 -244 239 -32 46
-95 169 -87 169 3 0 0 8 -5 19 -20 36 -38 181 -35 272 7 168 69 327 175 442
170 186 483 368 884 512 110 40 214 76 230 80 6 1 17 5 25 8 8 4 74 25 145 48
131 42 327 106 355 116 8 3 20 7 25 8 17 4 239 76 255 82 8 4 17 7 20 7 3 1
27 8 53 15 43 12 52 12 83 -2 19 -10 41 -17 49 -17 8 0 15 -4 15 -10 0 -5 5
-10 10 -10 34 0 241 -118 348 -199 95 -71 172 -149 284 -289 75 -93 182 -280
220 -382 52 -143 113 -409 124 -545 10 -118 5 -282 -11 -355 -3 -14 -8 -45
-11 -70 -3 -24 -13 -67 -20 -95 -8 -27 -16 -58 -19 -68 -16 -68 -87 -233 -133
-312 -26 -45 -65 -109 -74 -120 -172 -221 -267 -316 -458 -458 -58 -43 -110
-82 -117 -87 -7 -6 -14 -10 -17 -10 -3 0 -25 -13 -49 -30 -25 -16 -50 -30 -56
-30 -6 0 -11 -3 -11 -7 0 -5 -10 -13 -23 -19 -12 -6 -69 -36 -127 -65 -58 -30
-132 -66 -165 -79 -33 -13 -64 -26 -70 -30 -5 -4 -39 -17 -75 -29 -36 -13 -74
-27 -85 -32 -49 -21 -291 -89 -322 -91 -5 0 -18 -4 -29 -9 -12 -4 -41 -11 -65
-14 -24 -4 -47 -8 -50 -11 -4 -2 -22 -6 -40 -8 -39 -6 -102 -16 -133 -22 -11
-2 -41 -7 -66 -10 -72 -9 -103 -15 -112 -20 -4 -3 -8 0 -8 6 0 6 -5 8 -11 5
-53 -33 -686 -39 -954 -9 -27 3 -63 7 -80 8 -30 3 -91 13 -150 23 -16 3 -41 6
-55 8 -22 3 -124 24 -265 55 -212 46 -539 174 -760 297 -57 32 -228 142 -235
152 -3 4 -21 18 -40 31 -19 13 -40 29 -46 35 -7 5 -35 28 -63 50 -55 43 -260
249 -301 303 -14 18 -37 47 -53 64 -15 17 -27 38 -27 45 0 7 -4 13 -8 13 -8 0
-78 102 -110 160 -37 66 -110 218 -116 240 -4 14 -11 34 -16 45 -17 40 -42
110 -40 113 1 1 -6 28 -15 60 -10 31 -19 66 -21 77 -2 11 -6 31 -9 45 -6 30
-22 121 -29 170 -22 140 -24 541 -2 645 2 11 7 43 10 70 4 28 9 57 11 65 2 8
6 26 9 40 8 39 13 62 25 105 6 22 11 45 12 50 0 6 5 18 11 28 5 10 11 27 13
37 3 16 19 52 73 170 9 19 23 46 32 60 41 64 105 156 124 179 51 62 198 202
271 260 44 34 87 68 95 75 41 33 206 128 295 171 55 26 108 51 118 56 9 5 43
19 75 30 31 11 65 25 76 30 10 6 26 12 35 14 10 2 40 10 67 18 46 14 52 13 99
-8 83 -38 367 -155 384 -159 9 -2 23 -5 31 -8 105 -38 335 -61 423 -43 41 8
110 37 125 52 7 7 21 18 30 25 39 29 60 113 43 174 -20 76 -94 136 -211 174
-89 28 -262 30 -490 6 -41 -5 -152 -15 -240 -22 -19 -1 -35 -3 -35 -4 0 -1
-13 -3 -30 -5 -16 -2 -45 -7 -64 -10 -32 -6 -38 -2 -120 82 -82 84 -236 277
-249 312 -3 9 -8 18 -11 21 -24 21 -131 275 -136 325 -1 6 -7 30 -14 55 -7 25
-15 56 -17 70 -3 14 -9 48 -14 75 -32 176 -32 432 0 610 6 33 13 73 16 89 3
15 17 60 30 100 13 39 26 76 27 82 8 32 93 187 130 235 43 58 114 139 121 139
2 0 19 14 37 31 59 55 154 118 257 169 55 27 108 51 119 53 10 1 23 5 28 9 14
9 124 38 165 44 19 2 46 7 60 9 59 12 153 18 260 17 124 0 175 -5 300 -26 40
-7 142 -36 154 -43 6 -4 16 -8 21 -9 21 -4 152 -69 195 -98 66 -44 123 -108
133 -148 6 -21 3 -26 -10 -24 -49 7 -258 -67 -271 -96 -2 -5 -9 -8 -16 -8 -20
0 -140 -121 -179 -180 -37 -56 -76 -151 -83 -205 -5 -42 -6 -186 0 -210 2 -11
7 -33 11 -50 41 -184 213 -335 435 -382 51 -10 177 -9 238 4 125 26 246 93
342 192 45 46 102 132 106 160 0 3 4 13 7 21 14 33 25 102 23 155 0 30 2 55 5
55 4 0 3 19 -1 43 -5 23 -11 58 -14 77 -18 118 -109 315 -193 421 -35 45 -172
179 -182 179 -5 0 -14 6 -18 13 -11 18 -164 117 -180 117 -7 0 -13 5 -13 10 0
6 -9 10 -19 10 -11 0 -22 4 -25 9 -4 7 -154 68 -191 78 -5 1 -41 12 -80 24
-38 11 -83 23 -98 25 -16 2 -32 6 -37 9 -5 3 -29 8 -53 10 -25 3 -56 8 -68 11
-110 23 -579 24 -749 0 -56 -7 -119 -18 -190 -32 -41 -8 -86 -16 -100 -19 -44
-8 -225 -67 -235 -76 -5 -5 -15 -9 -23 -9 -39 0 -303 -148 -400 -224 -62 -49
-237 -236 -278 -296 -76 -113 -156 -279 -180 -372 -1 -5 -2 -9 -4 -10 -3 -4
-14 -51 -26 -114 -9 -46 -10 -311 -2 -369 15 -101 78 -295 125 -384 77 -146
154 -251 292 -395 97 -101 312 -261 441 -326 25 -12 48 -27 51 -32 3 -5 8 -9
10 -7 2 1 40 -15 83 -36 l79 -39 -84 -28 c-46 -15 -91 -31 -99 -35 -8 -3 -19
-7 -25 -8 -25 -7 -211 -83 -355 -147 -78 -35 -217 -106 -259 -132 -22 -15 -43
-26 -46 -26 -3 0 -11 -4 -18 -10 -7 -5 -56 -40 -111 -76 -54 -36 -106 -72
-115 -80 -9 -7 -34 -27 -56 -44 -221 -170 -436 -419 -576 -666 -46 -82 -119
-232 -119 -246 0 -8 -4 -18 -9 -23 -14 -15 -57 -157 -87 -290 -6 -26 -14 -72
-19 -110 -2 -16 -4 -30 -5 -30 -3 0 -7 -40 -16 -145 -13 -161 -8 -448 11 -550
2 -14 7 -42 10 -62 13 -91 18 -119 46 -225 34 -134 86 -275 145 -398 47 -96
88 -174 101 -190 5 -5 28 -41 53 -80 189 -291 474 -576 787 -781 61 -41 117
-74 122 -74 6 0 11 -3 11 -7 0 -5 19 -17 43 -28 23 -11 44 -23 47 -26 5 -7
261 -132 330 -162 152 -65 499 -183 595 -201 11 -2 38 -9 60 -14 101 -27 298
-65 397 -76 21 -3 41 -7 45 -9 5 -3 40 -8 79 -11 39 -4 81 -9 94 -11 20 -4
140 -13 270 -21 67 -4 485 -4 555 0 79 5 234 17 263 21 15 1 52 6 82 9 140 17
373 60 517 97 87 22 163 42 168 43 6 1 15 4 20 7 11 7 83 32 100 35 55 10 498
213 515 235 3 3 29 19 58 35 28 15 52 32 52 36 0 4 5 8 11 8 7 0 34 16 60 35
27 19 54 35 59 35 6 0 10 5 10 10 0 6 6 10 14 10 8 0 16 3 18 8 2 4 21 20 43
37 44 32 42 31 135 106 69 56 270 254 333 329 66 79 187 245 187 258 0 6 4 12
8 12 5 0 15 12 22 28 8 15 22 38 31 52 19 29 128 242 146 286 56 137 82 213
113 336 16 64 32 133 36 155 3 21 7 49 10 63 12 66 18 170 18 325 0 155 -3
194 -19 319 -44 330 -208 721 -408 971 -64 80 -267 275 -286 275 -3 0 -17 10
-31 23 -53 50 -374 227 -410 227 -5 0 -11 4 -15 10 -4 7 47 28 85 34 3 1 10 4
16 8 6 4 22 9 37 12 35 6 369 113 602 193 105 35 195 66 200 67 6 2 17 6 25 9
8 3 89 33 180 66 91 32 183 67 205 76 56 24 89 38 95 40 70 24 337 161 371
191 8 8 20 14 26 14 6 0 13 3 15 8 2 4 26 23 53 41 28 19 52 37 55 40 3 4 32
28 65 55 91 74 248 237 301 313 27 37 53 71 59 75 5 4 6 8 1 8 -5 0 -2 8 7 18
17 19 129 232 122 232 -2 0 5 21 16 48 12 26 22 54 25 62 2 8 10 40 18 70 8
30 18 70 21 88 3 17 8 47 11 65 20 112 25 375 10 470 -3 20 -8 54 -11 75 -11
70 -35 173 -61 250 -24 71 -126 280 -143 292 -4 3 -12 12 -17 21 -15 27 -76
100 -120 143 -233 232 -493 372 -819 441 -33 7 -63 11 -67 8 -5 -2 -8 -1 -8 4
0 4 -15 9 -33 9 -17 1 -57 5 -87 8 -53 7 -307 15 -312 10z"/>
</g>
</svg>
